<?xml version="1.0" encoding="UTF-8" standalone="no"?>
<!DOCTYPE svg PUBLIC "-//W3C//DTD SVG 1.1//EN" "http://www.w3.org/Graphics/SVG/1.1/DTD/svg11.dtd">
<svg width="100%" height="100%" viewBox="0 0 1182 1182" version="1.1" xmlns="http://www.w3.org/2000/svg" xmlns:xlink="http://www.w3.org/1999/xlink" xml:space="preserve" xmlns:serif="http://www.serif.com/" style="fill-rule:evenodd;clip-rule:evenodd;stroke-linecap:round;stroke-linejoin:round;stroke-miterlimit:1.5;">
    <g transform="matrix(1.08333,0,0,1.08333,-37.535,-60.8902)">
        <path d="M765.301,131.252L904.575,270.843L904.575,1071.41L254.969,1071.41L254.969,131.252L765.301,131.252Z" style="fill:white;"/>
        <g transform="matrix(0.771824,0,0,1,397.753,-439.873)">
            <path d="M430.402,557.443L675.246,746.851L430.402,746.851L430.402,557.443Z" style="fill:white;stroke:black;stroke-width:30.51px;"/>
        </g>
        <path d="M735.841,101.724L765.301,131.252L254.969,131.252L254.969,1071.41L904.575,1071.41L904.575,270.843L934.103,300.438L934.103,1100.94L225.441,1100.94L225.441,101.724L735.841,101.724Z"/>
    </g>
    <g id="Worm-and-hook" serif:id="Worm and hook" transform="matrix(1,0,0,1,-0.673849,151.574)">
        <g id="Hook">
            <g transform="matrix(1,0,0,1,143.211,-147.83)">
                <path d="M408.843,264.093C450.913,264.093 485.068,298.248 485.068,340.318C485.068,382.387 450.913,416.543 408.843,416.543C366.773,416.543 332.618,382.387 332.618,340.318C332.618,298.248 366.773,264.093 408.843,264.093ZM408.843,287.168C438.177,287.168 461.993,310.984 461.993,340.318C461.993,369.652 438.177,393.467 408.843,393.467C379.509,393.467 355.694,369.652 355.694,340.318C355.694,310.984 379.509,287.168 408.843,287.168Z" style="fill:rgb(68,68,68);"/>
            </g>
            <path d="M553.594,257.163C554.106,550.046 524.692,1074.84 798.438,512.786" style="fill:none;stroke:rgb(68,68,68);stroke-width:31.48px;stroke-linecap:butt;"/>
            <g transform="matrix(0.649136,0.576868,-0.918675,1.03376,734.263,-585.332)">
                <path d="M887.752,497.387L917.01,569.763L858.494,569.763L887.752,497.387Z" style="fill:rgb(68,68,68);"/>
                <path d="M887.752,497.387L917.01,569.763L858.494,569.763L887.752,497.387Z" style="fill:rgb(68,68,68);"/>
            </g>
        </g>
        <path id="Worm" d="M753.603,565.983C733.797,561.235 713.802,562.901 696.893,570.812C676.359,580.419 661.63,599.898 659.672,627.971C653.649,714.313 617.404,750.013 576.4,754.169C551.906,756.652 523.62,747.648 495.51,728.034C458.05,701.896 420.062,656.64 392.092,600.126C386.983,589.802 372.571,565.366 352.744,546.51C341.444,535.765 328.457,526.468 314.039,524.943C302.865,523.761 294.754,513.73 295.936,502.557C297.118,491.384 307.148,483.272 318.322,484.454C341.246,486.879 362.835,499.922 380.8,517.006C404.866,539.892 422.38,569.536 428.582,582.067C456.997,639.48 496.451,684.256 534.133,704.031C553.755,714.329 572.452,717.96 587.265,708.57C605.467,697.033 615.939,669.816 619.056,625.137C624.818,542.54 702.29,506.455 773.489,529.347C766.905,541.476 760.263,553.704 753.603,565.983ZM802.202,542.113C809.269,546.196 816.141,550.926 822.743,556.323C854.339,582.148 879.619,623.507 886.489,682.148C887.796,693.307 879.798,703.429 868.638,704.736C857.479,706.043 847.358,698.045 846.051,686.885C839.67,632.416 813.665,596.34 782.695,577.9C789.233,565.903 795.749,553.957 802.202,542.113ZM321.981,492.13C318.246,492.13 315.213,495.163 315.213,498.898C315.213,502.633 318.246,505.665 321.981,505.665C325.716,505.665 328.748,502.633 328.748,498.898C328.748,495.163 325.716,492.13 321.981,492.13Z" style="fill:rgb(40,147,255);"/>
    </g>
</svg>
